<svg width="120" height="26" viewBox="0 0 120 26" fill="none" xmlns="http://www.w3.org/2000/svg">
<rect width="119" height="26" transform="translate(0.5)" fill="white"/>
<path d="M24.93 14.25C24.93 13.6833 25.0433 13.19 25.27 12.77C25.4967 12.3433 25.81 12.0133 26.21 11.78C26.6167 11.5467 27.08 11.43 27.6 11.43C28.2733 11.43 28.8267 11.5933 29.26 11.92C29.7 12.2467 29.99 12.7 30.13 13.28H29.15C29.0567 12.9467 28.8733 12.6833 28.6 12.49C28.3333 12.2967 28 12.2 27.6 12.2C27.08 12.2 26.66 12.38 26.34 12.74C26.02 13.0933 25.86 13.5967 25.86 14.25C25.86 14.91 26.02 15.42 26.34 15.78C26.66 16.14 27.08 16.32 27.6 16.32C28 16.32 28.3333 16.2267 28.6 16.04C28.8667 15.8533 29.05 15.5867 29.15 15.24H30.13C29.9833 15.8 29.69 16.25 29.25 16.59C28.81 16.9233 28.26 17.09 27.6 17.09C27.08 17.09 26.6167 16.9733 26.21 16.74C25.81 16.5067 25.4967 16.1767 25.27 15.75C25.0433 15.3233 24.93 14.8233 24.93 14.25ZM34.0642 11.42C34.4776 11.42 34.8509 11.51 35.1842 11.69C35.5176 11.8633 35.7776 12.1267 35.9642 12.48C36.1576 12.8333 36.2542 13.2633 36.2542 13.77V17H35.3542V13.9C35.3542 13.3533 35.2176 12.9367 34.9442 12.65C34.6709 12.3567 34.2976 12.21 33.8242 12.21C33.3442 12.21 32.9609 12.36 32.6742 12.66C32.3942 12.96 32.2542 13.3967 32.2542 13.97V17H31.3442V9.6H32.2542V12.3C32.4342 12.02 32.6809 11.8033 32.9942 11.65C33.3142 11.4967 33.6709 11.42 34.0642 11.42ZM42.7407 14.05C42.7407 14.2233 42.7307 14.4067 42.7107 14.6H38.3307C38.364 15.14 38.5474 15.5633 38.8807 15.87C39.2207 16.17 39.6307 16.32 40.1107 16.32C40.504 16.32 40.8307 16.23 41.0907 16.05C41.3574 15.8633 41.544 15.6167 41.6507 15.31H42.6307C42.484 15.8367 42.1907 16.2667 41.7507 16.6C41.3107 16.9267 40.764 17.09 40.1107 17.09C39.5907 17.09 39.124 16.9733 38.7107 16.74C38.304 16.5067 37.984 16.1767 37.7507 15.75C37.5174 15.3167 37.4007 14.8167 37.4007 14.25C37.4007 13.6833 37.514 13.1867 37.7407 12.76C37.9674 12.3333 38.284 12.0067 38.6907 11.78C39.104 11.5467 39.5774 11.43 40.1107 11.43C40.6307 11.43 41.0907 11.5433 41.4907 11.77C41.8907 11.9967 42.1974 12.31 42.4107 12.71C42.6307 13.1033 42.7407 13.55 42.7407 14.05ZM41.8007 13.86C41.8007 13.5133 41.724 13.2167 41.5707 12.97C41.4174 12.7167 41.2074 12.5267 40.9407 12.4C40.6807 12.2667 40.3907 12.2 40.0707 12.2C39.6107 12.2 39.2174 12.3467 38.8907 12.64C38.5707 12.9333 38.3874 13.34 38.3407 13.86H41.8007ZM43.6019 14.25C43.6019 13.6833 43.7152 13.19 43.9419 12.77C44.1685 12.3433 44.4819 12.0133 44.8819 11.78C45.2885 11.5467 45.7519 11.43 46.2719 11.43C46.9452 11.43 47.4985 11.5933 47.9319 11.92C48.3719 12.2467 48.6619 12.7 48.8019 13.28H47.8219C47.7285 12.9467 47.5452 12.6833 47.2719 12.49C47.0052 12.2967 46.6719 12.2 46.2719 12.2C45.7519 12.2 45.3319 12.38 45.0119 12.74C44.6919 13.0933 44.5319 13.5967 44.5319 14.25C44.5319 14.91 44.6919 15.42 45.0119 15.78C45.3319 16.14 45.7519 16.32 46.2719 16.32C46.6719 16.32 47.0052 16.2267 47.2719 16.04C47.5385 15.8533 47.7219 15.5867 47.8219 15.24H48.8019C48.6552 15.8 48.3619 16.25 47.9219 16.59C47.4819 16.9233 46.9319 17.09 46.2719 17.09C45.7519 17.09 45.2885 16.9733 44.8819 16.74C44.4819 16.5067 44.1685 16.1767 43.9419 15.75C43.7152 15.3233 43.6019 14.8233 43.6019 14.25ZM53.0761 17L50.9261 14.58V17H50.0161V9.6H50.9261V13.95L53.0361 11.52H54.3061L51.7261 14.25L54.3161 17H53.0761ZM57.4886 14.24C57.4886 13.68 57.6019 13.19 57.8286 12.77C58.0553 12.3433 58.3653 12.0133 58.7586 11.78C59.1586 11.5467 59.6019 11.43 60.0886 11.43C60.5686 11.43 60.9853 11.5333 61.3386 11.74C61.6919 11.9467 61.9553 12.2067 62.1286 12.52V11.52H63.0486V17H62.1286V15.98C61.9486 16.3 61.6786 16.5667 61.3186 16.78C60.9653 16.9867 60.5519 17.09 60.0786 17.09C59.5919 17.09 59.1519 16.97 58.7586 16.73C58.3653 16.49 58.0553 16.1533 57.8286 15.72C57.6019 15.2867 57.4886 14.7933 57.4886 14.24ZM62.1286 14.25C62.1286 13.8367 62.0453 13.4767 61.8786 13.17C61.7119 12.8633 61.4853 12.63 61.1986 12.47C60.9186 12.3033 60.6086 12.22 60.2686 12.22C59.9286 12.22 59.6186 12.3 59.3386 12.46C59.0586 12.62 58.8353 12.8533 58.6686 13.16C58.5019 13.4667 58.4186 13.8267 58.4186 14.24C58.4186 14.66 58.5019 15.0267 58.6686 15.34C58.8353 15.6467 59.0586 15.8833 59.3386 16.05C59.6186 16.21 59.9286 16.29 60.2686 16.29C60.6086 16.29 60.9186 16.21 61.1986 16.05C61.4853 15.8833 61.7119 15.6467 61.8786 15.34C62.0453 15.0267 62.1286 14.6633 62.1286 14.25ZM66.6264 16.16L68.3264 11.52H69.2964L67.1464 17H66.0864L63.9364 11.52H64.9164L66.6264 16.16ZM69.8519 14.24C69.8519 13.68 69.9652 13.19 70.1919 12.77C70.4185 12.3433 70.7285 12.0133 71.1219 11.78C71.5219 11.5467 71.9652 11.43 72.4519 11.43C72.9319 11.43 73.3485 11.5333 73.7019 11.74C74.0552 11.9467 74.3185 12.2067 74.4919 12.52V11.52H75.4119V17H74.4919V15.98C74.3119 16.3 74.0419 16.5667 73.6819 16.78C73.3285 16.9867 72.9152 17.09 72.4419 17.09C71.9552 17.09 71.5152 16.97 71.1219 16.73C70.7285 16.49 70.4185 16.1533 70.1919 15.72C69.9652 15.2867 69.8519 14.7933 69.8519 14.24ZM74.4919 14.25C74.4919 13.8367 74.4085 13.4767 74.2419 13.17C74.0752 12.8633 73.8485 12.63 73.5619 12.47C73.2819 12.3033 72.9719 12.22 72.6319 12.22C72.2919 12.22 71.9819 12.3 71.7019 12.46C71.4219 12.62 71.1985 12.8533 71.0319 13.16C70.8652 13.4667 70.7819 13.8267 70.7819 14.24C70.7819 14.66 70.8652 15.0267 71.0319 15.34C71.1985 15.6467 71.4219 15.8833 71.7019 16.05C71.9819 16.21 72.2919 16.29 72.6319 16.29C72.9719 16.29 73.2819 16.21 73.5619 16.05C73.8485 15.8833 74.0752 15.6467 74.2419 15.34C74.4085 15.0267 74.4919 14.6633 74.4919 14.25ZM77.4197 10.63C77.2464 10.63 77.0997 10.57 76.9797 10.45C76.8597 10.33 76.7997 10.1833 76.7997 10.01C76.7997 9.83667 76.8597 9.69 76.9797 9.57C77.0997 9.45 77.2464 9.39 77.4197 9.39C77.5864 9.39 77.7264 9.45 77.8397 9.57C77.9597 9.69 78.0197 9.83667 78.0197 10.01C78.0197 10.1833 77.9597 10.33 77.8397 10.45C77.7264 10.57 77.5864 10.63 77.4197 10.63ZM77.8597 11.52V17H76.9497V11.52H77.8597ZM80.3206 9.6V17H79.4106V9.6H80.3206ZM81.5316 14.24C81.5316 13.68 81.6449 13.19 81.8716 12.77C82.0982 12.3433 82.4082 12.0133 82.8016 11.78C83.2016 11.5467 83.6449 11.43 84.1316 11.43C84.6116 11.43 85.0282 11.5333 85.3816 11.74C85.7349 11.9467 85.9982 12.2067 86.1716 12.52V11.52H87.0916V17H86.1716V15.98C85.9916 16.3 85.7216 16.5667 85.3616 16.78C85.0082 16.9867 84.5949 17.09 84.1216 17.09C83.6349 17.09 83.1949 16.97 82.8016 16.73C82.4082 16.49 82.0982 16.1533 81.8716 15.72C81.6449 15.2867 81.5316 14.7933 81.5316 14.24ZM86.1716 14.25C86.1716 13.8367 86.0882 13.4767 85.9216 13.17C85.7549 12.8633 85.5282 12.63 85.2416 12.47C84.9616 12.3033 84.6516 12.22 84.3116 12.22C83.9716 12.22 83.6616 12.3 83.3816 12.46C83.1016 12.62 82.8782 12.8533 82.7116 13.16C82.5449 13.4667 82.4616 13.8267 82.4616 14.24C82.4616 14.66 82.5449 15.0267 82.7116 15.34C82.8782 15.6467 83.1016 15.8833 83.3816 16.05C83.6616 16.21 83.9716 16.29 84.3116 16.29C84.6516 16.29 84.9616 16.21 85.2416 16.05C85.5282 15.8833 85.7549 15.6467 85.9216 15.34C86.0882 15.0267 86.1716 14.6633 86.1716 14.25ZM89.5394 12.54C89.726 12.2133 89.9994 11.9467 90.3594 11.74C90.7194 11.5333 91.1294 11.43 91.5894 11.43C92.0827 11.43 92.526 11.5467 92.9194 11.78C93.3127 12.0133 93.6227 12.3433 93.8494 12.77C94.076 13.19 94.1894 13.68 94.1894 14.24C94.1894 14.7933 94.076 15.2867 93.8494 15.72C93.6227 16.1533 93.3094 16.49 92.9094 16.73C92.516 16.97 92.076 17.09 91.5894 17.09C91.116 17.09 90.6994 16.9867 90.3394 16.78C89.986 16.5733 89.7194 16.31 89.5394 15.99V17H88.6294V9.6H89.5394V12.54ZM93.2594 14.24C93.2594 13.8267 93.176 13.4667 93.0094 13.16C92.8427 12.8533 92.616 12.62 92.3294 12.46C92.0494 12.3 91.7394 12.22 91.3994 12.22C91.066 12.22 90.756 12.3033 90.4694 12.47C90.1894 12.63 89.9627 12.8667 89.7894 13.18C89.6227 13.4867 89.5394 13.8433 89.5394 14.25C89.5394 14.6633 89.6227 15.0267 89.7894 15.34C89.9627 15.6467 90.1894 15.8833 90.4694 16.05C90.756 16.21 91.066 16.29 91.3994 16.29C91.7394 16.29 92.0494 16.21 92.3294 16.05C92.616 15.8833 92.8427 15.6467 93.0094 15.34C93.176 15.0267 93.2594 14.66 93.2594 14.24ZM95.8572 10.63C95.6839 10.63 95.5372 10.57 95.4172 10.45C95.2972 10.33 95.2372 10.1833 95.2372 10.01C95.2372 9.83667 95.2972 9.69 95.4172 9.57C95.5372 9.45 95.6839 9.39 95.8572 9.39C96.0239 9.39 96.1639 9.45 96.2772 9.57C96.3972 9.69 96.4572 9.83667 96.4572 10.01C96.4572 10.1833 96.3972 10.33 96.2772 10.45C96.1639 10.57 96.0239 10.63 95.8572 10.63ZM96.2972 11.52V17H95.3872V11.52H96.2972ZM98.7581 9.6V17H97.8481V9.6H98.7581ZM100.779 10.63C100.606 10.63 100.459 10.57 100.339 10.45C100.219 10.33 100.159 10.1833 100.159 10.01C100.159 9.83667 100.219 9.69 100.339 9.57C100.459 9.45 100.606 9.39 100.779 9.39C100.946 9.39 101.086 9.45 101.199 9.57C101.319 9.69 101.379 9.83667 101.379 10.01C101.379 10.1833 101.319 10.33 101.199 10.45C101.086 10.57 100.946 10.63 100.779 10.63ZM101.219 11.52V17H100.309V11.52H101.219ZM103.88 12.27V15.5C103.88 15.7667 103.937 15.9567 104.05 16.07C104.163 16.1767 104.36 16.23 104.64 16.23H105.31V17H104.49C103.983 17 103.603 16.8833 103.35 16.65C103.097 16.4167 102.97 16.0333 102.97 15.5V12.27H102.26V11.52H102.97V10.14H103.88V11.52H105.31V12.27H103.88ZM111.133 11.52L107.833 19.58H106.893L107.973 16.94L105.763 11.52H106.773L108.493 15.96L110.193 11.52H111.133Z" fill="#C94D3F"/>
<circle cx="13.5" cy="13" r="5" fill="#C94D3F"/>
<path d="M14.1767 13.8563L14.5267 13.5063C14.5738 13.4597 14.6335 13.4278 14.6984 13.4145C14.7633 13.4012 14.8307 13.407 14.8923 13.4313L15.3189 13.6016C15.3812 13.6269 15.4346 13.67 15.4724 13.7256C15.5103 13.7813 15.5308 13.8468 15.5314 13.9141V14.6953C15.531 14.7411 15.5214 14.7863 15.5031 14.8282C15.4848 14.8701 15.4582 14.9079 15.4249 14.9393C15.3917 14.9707 15.3524 14.995 15.3094 15.0108C15.2665 15.0266 15.2208 15.0336 15.1751 15.0313C12.1861 14.8453 11.5829 12.3141 11.4689 11.3453C11.4636 11.2977 11.4684 11.2496 11.4831 11.204C11.4977 11.1585 11.5219 11.1165 11.5539 11.0809C11.5859 11.0454 11.6251 11.017 11.6689 10.9976C11.7127 10.9783 11.7601 10.9685 11.8079 10.9688H12.5626C12.63 10.969 12.6957 10.9893 12.7514 11.0272C12.8071 11.065 12.8502 11.1187 12.8751 11.1813L13.0454 11.6078C13.0705 11.6692 13.0769 11.7367 13.0638 11.8017C13.0507 11.8667 13.0188 11.9265 12.972 11.9734L12.622 12.3234C12.622 12.3234 12.8236 13.6875 14.1767 13.8563Z" fill="white"/>
</svg>
